<svg width="86" height="113" viewBox="0 0 86 113" fill="none" xmlns="http://www.w3.org/2000/svg">
<path d="M27.2512 32.25L10.75 57.0072V102.125H75.25V32.25H27.2512ZM21.5 21.5H80.625C82.0505 21.5 83.4177 22.0663 84.4257 23.0743C85.4337 24.0823 86 25.4495 86 26.875V107.5C86 108.926 85.4337 110.293 84.4257 111.301C83.4177 112.309 82.0505 112.875 80.625 112.875H5.375C3.94946 112.875 2.58231 112.309 1.5743 111.301C0.566294 110.293 0 108.926 0 107.5V53.75L21.5 21.5ZM48.375 0H75.25C76.6755 0 78.0427 0.566293 79.0507 1.5743C80.0587 2.58231 80.625 3.94946 80.625 5.375V16.125H43V5.375C43 3.94946 43.5663 2.58231 44.5743 1.5743C45.5823 0.566293 46.9495 0 48.375 0ZM21.5 59.125H32.25V91.375H21.5V59.125Z" fill="#FF9900"/>
</svg>
