<svg width="160" height="160" viewBox="0 0 160 160" fill="none" xmlns="http://www.w3.org/2000/svg">
<rect x="48.3882" y="29.5132" width="5.77808" height="33.3696" rx="2.88904" transform="rotate(-43.4989 48.3882 29.5132)" fill="#FF9900"/>
<path d="M30.2487 151.123H132.983C133.923 151.123 134.788 150.597 135.225 149.763C135.661 148.925 135.592 147.916 135.052 147.147L118.616 123.671H126.006C126.95 123.671 127.814 123.144 128.248 122.309C128.684 121.473 128.619 120.464 128.076 119.694L108.206 91.316H115.629C116.571 91.316 117.436 90.7903 117.869 89.9551C118.305 89.1182 118.24 88.109 117.697 87.3406L107.599 72.916C107.597 72.916 107.597 72.9143 107.596 72.9125L83.687 38.7551C82.7428 37.4013 80.4905 37.4013 79.5463 38.7551L45.5314 87.3389C44.9881 88.109 44.923 89.1182 45.3591 89.9534C45.7916 90.7903 46.6566 91.3143 47.5991 91.3143H55.0206L35.1525 119.692C34.6092 120.462 34.5441 121.473 34.9802 122.307C35.4127 123.144 36.2777 123.669 37.2219 123.669H44.6118L28.1775 147.145C27.636 147.916 27.5709 148.925 28.0052 149.762C28.443 150.597 29.3081 151.123 30.2487 151.123ZM128.127 146.066H122.375C91.5621 142.083 79.9384 129.66 76.0421 123.671H112.447L128.127 146.066ZM81.6158 44.6101L100.607 71.7327C82.0975 70.9732 72.872 64.3868 69.7512 61.5542L81.6158 44.6101ZM66.8184 65.7424C71.272 69.6316 82.4738 76.8844 104.081 76.8844C104.123 76.8844 104.17 76.8844 104.211 76.8844L110.776 86.2575H103.355H59.8734H52.4518L66.8184 65.7424ZM102.041 91.316L104.174 94.3613C98.2224 97.614 80.2232 105.946 49.7265 107.689L61.1903 91.3143H102.041V91.316ZM46.0624 112.923C80.9758 111.625 100.86 102.082 107.096 98.5371L121.153 118.613H113.762H49.4698H42.0764L46.0624 112.923ZM50.785 123.671H70.2083C72.2654 127.97 79.3265 138.987 99.6694 146.066H35.105L50.785 123.671Z" fill="#FF9900"/>
<path d="M72.9002 26.6356L69.927 35.9895C69.6105 36.9794 69.9674 38.0642 70.8096 38.6761C71.2316 38.9855 71.7327 39.1367 72.2321 39.1367C72.7261 39.1367 73.2202 38.9873 73.6404 38.6866L81.6175 32.9688L89.5947 38.6866C90.4387 39.2897 91.5833 39.2897 92.4237 38.6761C93.2659 38.0642 93.6228 36.9794 93.3063 35.9895L90.3332 26.6356L98.2365 20.8141C99.0769 20.1952 99.425 19.1104 99.0997 18.1205C98.7797 17.1288 97.8584 16.4572 96.8158 16.4502L87.003 16.3904L83.9103 7.07345C83.5797 6.08356 82.6567 5.41895 81.6158 5.41895C80.5714 5.41895 79.6483 6.08708 79.3213 7.07345L76.2268 16.3904L66.4158 16.4502C65.3732 16.4572 64.4554 17.1288 64.1318 18.1205C63.8083 19.1104 64.1565 20.1952 64.9969 20.8141L72.9002 26.6356ZM77.9921 21.215C79.0259 21.208 79.9437 20.5433 80.2707 19.5605L81.6158 15.5095L82.9591 19.5605C83.2861 20.5433 84.2039 21.2097 85.2395 21.215L89.505 21.2431L86.0712 23.7715C85.236 24.3851 84.8861 25.4629 85.2008 26.4493L86.4932 30.5161L83.0241 28.0282C82.6022 27.7275 82.1081 27.5781 81.6158 27.5781C81.1217 27.5781 80.6259 27.7275 80.2074 28.0282L76.7419 30.5143L78.0325 26.4493C78.3455 25.4611 77.9956 24.3851 77.1622 23.7715L73.7283 21.2431L77.9921 21.215Z" fill="#FF9900"/>
<circle cx="81.9999" cy="59" r="5.5" stroke="#FF9900" stroke-width="3"/>
<rect x="109.478" y="24" width="5.77808" height="40.5079" rx="2.88904" transform="rotate(40.8176 109.478 24)" fill="#FF9900"/>
</svg>
