<svg width="130" height="130" viewBox="0 0 130 130" fill="none" xmlns="http://www.w3.org/2000/svg">
<path d="M73.6562 130H56.3275C53.6462 130 51.4634 127.818 51.4634 125.136V113.669C47.5108 112.573 43.722 110.995 40.1619 108.965L32.0413 117.085C30.1997 118.926 26.9972 118.925 25.1583 117.083L12.9131 104.833C11.9922 103.914 11.4844 102.692 11.4859 101.392C11.4859 100.093 11.9937 98.8719 12.9145 97.9536L21.1802 89.6844C19.2398 86.1593 17.7421 82.4206 16.7089 78.5284H4.8545C2.17745 78.5286 0 76.3483 0 73.6655V56.3383C0 53.6555 2.17745 51.4726 4.8545 51.4726H17.0972C18.2034 47.7594 19.7445 44.1869 21.6945 40.8189L12.9143 32.0381C11.9988 31.1321 11.4897 29.9147 11.4871 28.6174C11.4844 27.3146 11.991 26.0903 12.9158 25.1669L25.1598 12.9072C27.0135 11.075 30.1972 11.0778 32.0348 12.8991L41.0817 21.9467C44.3777 20.1563 47.8577 18.7479 51.4651 17.7446V4.85655C51.4634 2.1774 53.6449 0 56.3275 0H73.6562C76.3388 0 78.5215 2.1774 78.5215 4.85613V17.8377C82.0884 18.8588 85.5305 20.2781 88.7885 22.071L97.9546 12.9055C99.7837 11.0758 102.997 11.0746 104.825 12.9042L117.084 25.1667C118.976 27.0707 118.975 30.1515 117.083 32.0379L108.077 41.0462C109.962 44.3437 111.457 47.839 112.54 51.4709H125.125C127.812 51.4709 130 53.6526 130 56.3366V73.6653C130 76.3468 127.813 78.5284 125.125 78.5284H112.929C111.917 82.3364 110.46 85.9996 108.582 89.4473L117.084 97.9544C118.973 99.8506 118.973 102.934 117.088 104.828L104.827 117.084C103.007 118.919 99.7773 118.924 97.9478 117.077L89.6985 108.824C86.1697 110.868 82.4214 112.461 78.5215 113.574V125.133C78.5202 127.818 76.3388 130 73.6562 130ZM39.5376 103.846L40.9039 104.684C44.9529 107.172 49.3497 109.001 53.9739 110.125L55.5258 110.502V125.137C55.5258 125.578 55.8861 125.938 56.3275 125.938H73.6562C74.1059 125.938 74.4591 125.586 74.4591 125.137V110.434L75.9961 110.048C80.5592 108.902 84.9141 107.051 88.9402 104.546L90.3105 103.693L100.828 114.215C101.033 114.422 101.27 114.452 101.393 114.452C101.514 114.452 101.752 114.423 101.949 114.222L114.213 101.964C114.522 101.653 114.524 101.141 114.209 100.827L103.51 90.122L104.304 88.7677C106.623 84.8121 108.326 80.5299 109.361 76.0419L109.727 74.4683H125.126C125.574 74.4683 125.939 74.1097 125.939 73.6678V56.3383C125.939 55.8954 125.574 55.5353 125.126 55.5353H109.433L109.034 54.0226C107.896 49.7107 106.133 45.5966 103.793 41.7914L102.952 40.4248L114.209 29.1659C114.519 28.8557 114.518 28.3493 114.205 28.0364L101.951 15.7794C101.753 15.5817 101.513 15.5504 101.388 15.5504C101.262 15.5504 101.021 15.5802 100.822 15.7807L89.4472 27.1561L88.0903 26.3516C84.3083 24.1118 80.2378 22.4325 75.9912 21.3653L74.4557 20.9793V4.85592C74.4572 4.41173 74.1052 4.06228 73.6551 4.06228H56.3264C55.885 4.06228 55.5247 4.41852 55.5247 4.85592V20.9088L53.9729 21.2867C49.6844 22.3295 45.5759 23.9896 41.7586 26.2242L40.4058 27.0163L29.1665 15.7763C28.9675 15.5785 28.7239 15.5475 28.5979 15.5475C28.4707 15.5475 28.2296 15.5785 28.0225 15.7831L15.7845 28.0374C15.5774 28.2448 15.5461 28.4816 15.5461 28.6048C15.5461 28.7268 15.5761 28.9583 15.7764 29.1559L26.8262 40.205L25.9731 41.5756C23.5626 45.4473 21.755 49.6345 20.5971 54.0194L20.1989 55.5321H4.8545C4.41842 55.5349 4.06241 55.8937 4.06241 56.3379V73.6664C4.06241 74.1078 4.41842 74.4668 4.8545 74.4668H19.9151L20.2794 76.0417C21.3302 80.6068 23.0743 84.9633 25.4601 88.9908L26.2645 90.348L15.7862 100.83C15.5803 101.036 15.5491 101.273 15.5491 101.396C15.5491 101.519 15.5791 101.757 15.7847 101.961L28.0327 114.215C28.2385 114.421 28.4768 114.452 28.6015 114.452C28.7247 114.452 28.9643 114.422 29.1701 114.215L39.5376 103.846ZM64.998 94.7916C48.5724 94.7916 35.2086 81.4283 35.2086 65.0029C35.2086 48.5761 48.5724 35.2114 64.998 35.2114C81.4235 35.2114 94.7858 48.5761 94.7858 65.0029C94.7858 81.4279 81.4235 94.7916 64.998 94.7916ZM64.998 39.2737C50.8107 39.2737 39.2708 50.8143 39.2708 65.0024C39.2708 79.1878 50.8107 90.7284 64.998 90.7284C79.1836 90.7284 90.7234 79.1878 90.7234 65.0024C90.7234 50.8145 79.1836 39.2737 64.998 39.2737Z" fill="#FF9900"/>
</svg>
