<svg width="60" height="60" viewBox="0 0 60 60" fill="none" xmlns="http://www.w3.org/2000/svg">
<rect width="60" height="60" rx="30" fill="#FFB800"/>
<path d="M41.1001 28.2736H43.9501C43.9501 20.9633 38.4311 15.45 31.1108 15.45V18.3C36.8992 18.3 41.1001 22.4938 41.1001 28.2736Z" fill="black"/>
<path d="M31.1252 24C34.1219 24 35.4002 25.2783 35.4002 28.275H38.2502C38.2502 23.6794 35.7208 21.15 31.1252 21.15V24ZM36.0015 31.7563C35.7277 31.5074 35.3679 31.3747 34.998 31.3861C34.6282 31.3976 34.2773 31.5523 34.0193 31.8176L30.6093 35.3245C29.7885 35.1678 28.1384 34.6533 26.4398 32.959C24.7412 31.259 24.2267 29.6046 24.0743 28.7895L27.5783 25.378C27.844 25.1203 27.9989 24.7693 28.0103 24.3993C28.0218 24.0294 27.8888 23.6695 27.6396 23.3958L22.3742 17.6061C22.1249 17.3315 21.7784 17.165 21.4083 17.1419C21.0382 17.1187 20.6736 17.2408 20.3921 17.4821L17.2998 20.134C17.0534 20.3813 16.9064 20.7104 16.8866 21.0588C16.8652 21.4151 16.4576 29.8539 23.0012 36.4004C28.7098 42.1075 35.8604 42.525 37.8298 42.525C38.1176 42.525 38.2943 42.5165 38.3414 42.5136C38.6898 42.4941 39.0187 42.3464 39.2648 42.099L41.9153 39.0053C42.1567 38.7239 42.279 38.3594 42.2561 37.9893C42.2333 37.6192 42.067 37.2726 41.7927 37.0231L36.0015 31.7563V31.7563Z" fill="black"/>
</svg>
