<svg width="60" height="60" viewBox="0 0 60 60" fill="none" xmlns="http://www.w3.org/2000/svg">
<path d="M46.687 59.9683L13.3713 60C6.04182 60.0067 0.0399845 54.0165 0.0316556 46.687L5.55342e-06 13.3713C-0.0066576 6.04182 5.98351 0.0399845 13.313 0.0316556L46.6287 5.55342e-06C53.9582 -0.0066576 59.96 5.98351 59.9683 13.313L60 46.6287C60.0083 53.9599 54.0165 59.9617 46.687 59.9683Z" fill="url(#paint0_radial_21_3)"/>
<path d="M46.687 59.9683L13.3713 60C6.04182 60.0067 0.0399845 54.0165 0.0316556 46.687L5.55342e-06 13.3713C-0.0066576 6.04182 5.98351 0.0399845 13.313 0.0316556L46.6287 5.55342e-06C53.9582 -0.0066576 59.96 5.98351 59.9683 13.313L60 46.6287C60.0083 53.9599 54.0165 59.9617 46.687 59.9683Z" fill="url(#paint1_radial_21_3)"/>
<path d="M30.0007 41.6614C23.5724 41.6614 18.3402 36.4308 18.3402 30.0008C18.3402 23.5709 23.5724 18.3403 30.0007 18.3403C36.429 18.3403 41.6612 23.5709 41.6612 30.0008C41.6612 36.4308 36.429 41.6614 30.0007 41.6614ZM30.0007 21.6719C25.4081 21.6719 21.6718 25.4083 21.6718 30.0008C21.6718 34.5934 25.4081 38.3298 30.0007 38.3298C34.5933 38.3298 38.3297 34.5934 38.3297 30.0008C38.3297 25.4083 34.5933 21.6719 30.0007 21.6719Z" fill="white"/>
<path d="M42.4942 20.0061C43.8741 20.0061 44.9928 18.8874 44.9928 17.5074C44.9928 16.1275 43.8741 15.0088 42.4942 15.0088C41.1142 15.0088 39.9955 16.1275 39.9955 17.5074C39.9955 18.8874 41.1142 20.0061 42.4942 20.0061Z" fill="white"/>
<path d="M39.9955 51.6561H20.0061C13.5778 51.6561 8.34558 46.4255 8.34558 39.9956V20.0061C8.34558 13.5762 13.5778 8.34561 20.0061 8.34561H39.9955C46.4238 8.34561 51.656 13.5762 51.656 20.0061V39.9956C51.656 46.4255 46.4238 51.6561 39.9955 51.6561ZM20.0061 11.6772C15.4135 11.6772 11.6772 15.4135 11.6772 20.0061V39.9956C11.6772 44.5882 15.4135 48.3245 20.0061 48.3245H39.9955C44.5881 48.3245 48.3245 44.5882 48.3245 39.9956V20.0061C48.3245 15.4135 44.5881 11.6772 39.9955 11.6772H20.0061Z" fill="white"/>
<defs>
<radialGradient id="paint0_radial_21_3" cx="0" cy="0" r="1" gradientUnits="userSpaceOnUse" gradientTransform="translate(22.3049 60.0433) scale(74.7922)">
<stop stop-color="#FFDD55"/>
<stop offset="0.328" stop-color="#FF543F"/>
<stop offset="0.348" stop-color="#FC5245"/>
<stop offset="0.504" stop-color="#E64771"/>
<stop offset="0.643" stop-color="#D53E91"/>
<stop offset="0.761" stop-color="#CC39A4"/>
<stop offset="0.841" stop-color="#C837AB"/>
</radialGradient>
<radialGradient id="paint1_radial_21_3" cx="0" cy="0" r="1" gradientUnits="userSpaceOnUse" gradientTransform="translate(9.65491 -0.749095) scale(49.6621 33.0899)">
<stop stop-color="#4168C9"/>
<stop offset="0.999" stop-color="#4168C9" stop-opacity="0"/>
</radialGradient>
</defs>
</svg>
