<svg width="165" height="165" viewBox="0 0 165 165" fill="none" xmlns="http://www.w3.org/2000/svg">
<path d="M93.4867 164.988H71.4926C68.0894 164.988 65.3189 162.219 65.3189 158.815V144.262C60.3022 142.87 55.4933 140.868 50.9748 138.292L40.6679 148.597C38.3304 150.935 34.2656 150.933 31.9317 148.596L16.3897 133.048C15.2209 131.881 14.5763 130.331 14.5782 128.681C14.5782 127.033 15.2228 125.482 16.3915 124.317L26.8826 113.822C24.4198 109.348 22.5188 104.603 21.2074 99.6637H6.16149C2.76369 99.664 0 96.8968 0 93.492V71.5013C0 68.0965 2.76369 65.326 6.16149 65.326H21.7003C23.1044 60.6134 25.0603 56.0795 27.5353 51.8049L16.3913 40.6609C15.2293 39.5111 14.583 37.966 14.5798 36.3195C14.5763 34.666 15.2193 33.1123 16.3932 31.9404L31.9336 16.3811C34.2864 14.0557 38.3272 14.0592 40.6595 16.3708L52.1421 27.8534C56.3255 25.5812 60.7424 23.7938 65.3211 22.5204V6.16365C65.3189 2.76343 68.0877 0 71.4926 0H93.4867C96.8915 0 99.6619 2.76343 99.6619 6.16311V22.6385C104.189 23.9345 108.558 25.7357 112.693 28.0112L124.327 16.3789C126.649 14.0568 130.727 14.0552 133.048 16.3773L148.607 31.9401C151.008 34.3565 151.006 38.2666 148.605 40.6607L137.174 52.0934C139.567 56.2785 141.464 60.7145 142.84 65.3239H158.813C162.223 65.3239 165 68.0927 165 71.4991V93.4917C165 96.8949 162.224 99.6637 158.813 99.6637H143.332C142.048 104.497 140.2 109.146 137.815 113.521L148.607 124.318C151.005 126.725 151.005 130.638 148.612 133.042L133.049 148.596C130.74 150.925 126.64 150.932 124.318 148.588L113.848 138.114C109.369 140.707 104.612 142.728 99.6619 144.141V158.812C99.6603 162.219 96.8915 164.988 93.4867 164.988ZM50.1824 131.795L51.9165 132.859C57.0556 136.016 62.6361 138.338 68.5054 139.765L70.4751 140.242V158.817C70.4751 159.377 70.9323 159.834 71.4926 159.834H93.4867C94.0574 159.834 94.5058 159.387 94.5058 158.817V140.157L96.4566 139.667C102.248 138.213 107.776 135.863 112.886 132.684L114.625 131.601L127.974 144.955C128.234 145.218 128.534 145.256 128.691 145.256C128.845 145.256 129.146 145.219 129.397 144.964L144.963 129.406C145.355 129.012 145.357 128.363 144.958 127.964L131.378 114.378L132.385 112.659C135.329 107.639 137.49 102.204 138.805 96.508L139.269 94.5108H158.814C159.383 94.5108 159.845 94.0557 159.845 93.4949V71.5013C159.845 70.9392 159.383 70.4822 158.814 70.4822H138.896L138.389 68.5624C136.945 63.09 134.708 57.8686 131.738 53.0392L130.67 51.3048L144.958 37.0156C145.351 36.622 145.35 35.9793 144.952 35.5821L129.4 20.0263C129.149 19.7753 128.843 19.7357 128.685 19.7357C128.525 19.7357 128.219 19.7735 127.967 20.028L113.529 34.4649L111.807 33.4439C107.007 30.6012 101.84 28.47 96.4504 27.1155L94.5015 26.6257V6.16285C94.5034 5.59911 94.0566 5.15561 93.4853 5.15561H71.4912C70.931 5.15561 70.4737 5.60773 70.4737 6.16285V26.5362L68.504 27.0158C63.061 28.3393 57.8464 30.4462 53.0014 33.2822L51.2843 34.2875L37.0191 20.0223C36.7664 19.7713 36.4572 19.7319 36.2973 19.7319C36.1358 19.7319 35.8299 19.7713 35.567 20.0309L20.0341 35.5835C19.7713 35.8466 19.7316 36.1472 19.7316 36.3036C19.7316 36.4584 19.7697 36.7522 20.0239 37.003L34.0486 51.0258L32.9659 52.7653C29.9064 57.679 27.6121 62.9932 26.1425 68.5583L25.637 70.4782H6.16149C5.60799 70.4817 5.15614 70.937 5.15614 71.5008V93.493C5.15614 94.0533 5.60799 94.5089 6.16149 94.5089H25.2768L25.7392 96.5077C27.0729 102.301 29.2866 107.831 32.3148 112.942L33.3358 114.664L20.0363 127.967C19.775 128.229 19.7354 128.529 19.7354 128.685C19.7354 128.842 19.7734 129.144 20.0344 129.404L35.5799 144.955C35.8412 145.216 36.1437 145.256 36.3019 145.256C36.4583 145.256 36.7624 145.217 37.0236 144.955L50.1824 131.795ZM82.4974 120.304C61.6496 120.304 44.6879 103.344 44.6879 82.4978C44.6879 61.65 61.6496 44.6882 82.4974 44.6882C103.345 44.6882 120.305 61.65 120.305 82.4978C120.305 103.344 103.345 120.304 82.4974 120.304ZM82.4974 49.8439C64.4904 49.8439 49.8438 64.4906 49.8438 82.4973C49.8438 100.501 64.4904 115.147 82.4974 115.147C100.502 115.147 115.149 100.501 115.149 82.4973C115.149 64.4908 100.502 49.8439 82.4974 49.8439Z" fill="white"/>
</svg>
