<svg width="244" height="405" viewBox="0 0 244 405" fill="none" xmlns="http://www.w3.org/2000/svg">
<g clip-path="url(#clip0_22:10)">
<path d="M139.177 229.524H118.041V267.91H139.177V229.524Z" fill="#043340"/>
<path d="M101.704 356.964C100.824 356.861 99.973 356.586 99.1993 356.155C98.4257 355.723 97.7448 355.144 97.1956 354.449C96.6464 353.755 96.2396 352.96 95.9984 352.108C95.7573 351.257 95.6865 350.367 95.7902 349.488L105.486 267.123C105.589 266.245 105.865 265.395 106.297 264.623C106.73 263.851 107.31 263.171 108.006 262.623C108.701 262.075 109.498 261.669 110.351 261.428C111.203 261.187 112.095 261.116 112.975 261.22C113.855 261.323 114.706 261.598 115.48 262.03C116.254 262.462 116.934 263.041 117.484 263.735C118.033 264.429 118.44 265.225 118.681 266.076C118.922 266.927 118.993 267.818 118.889 268.696L109.194 351.061C109.091 351.94 108.816 352.79 108.384 353.562C107.952 354.335 107.371 355.014 106.676 355.563C105.98 356.111 105.183 356.517 104.33 356.758C103.477 356.998 102.585 357.068 101.704 356.964Z" fill="#043340"/>
<path d="M158.358 354.698L145.834 268.886C145.702 267.181 146.223 265.49 147.293 264.155C148.362 262.82 149.9 261.941 151.595 261.695C153.29 261.45 155.014 261.856 156.42 262.833C157.826 263.809 158.807 265.282 159.165 266.954L171.713 352.766C171.894 353.663 171.891 354.588 171.702 355.483C171.514 356.378 171.145 357.226 170.617 357.974C170.09 358.722 169.415 359.356 168.635 359.835C167.854 360.314 166.984 360.63 166.077 360.762C165.17 360.895 164.246 360.841 163.36 360.606C162.475 360.37 161.647 359.956 160.926 359.39C160.206 358.824 159.609 358.118 159.172 357.314C158.734 356.51 158.466 355.625 158.382 354.714L158.358 354.698Z" fill="#043340"/>
<path d="M112.947 319.833L114.09 394.806L72.7597 393.221L90.9385 319.716C91.8878 315.857 93.8875 312.264 96.3962 311.005C99.1068 309.65 103.029 309.905 105.877 310.727C109.073 311.643 112.947 316.401 112.947 319.833Z" fill="#A2BFDC"/>
<g style="mix-blend-mode:multiply" opacity="0.46">
<path d="M112.947 319.833C112.924 318.948 112.726 318.077 112.365 317.268C109.109 346.072 99.733 389.737 72.7758 393.221L114.106 394.806L112.947 319.833Z" fill="#A3B6BF"/>
</g>
<path d="M93.4754 394.015L95.6609 368.574L113.723 370.477L113.702 369.268L95.7619 367.376L100.678 310.046C100.274 310.046 99.8703 310.086 99.4865 310.13L95.8508 352.472H82.8146L82.6853 352.988C82.6328 353.214 82.5762 353.44 82.5197 353.662H95.7417L92.2958 393.979L93.4754 394.015Z" fill="#4890C0"/>
<path d="M97.1718 365.751C97.1726 365.853 97.2036 365.953 97.2609 366.037C97.3182 366.121 97.3992 366.187 97.4938 366.225C97.5883 366.264 97.6921 366.273 97.7922 366.253C97.8922 366.233 97.984 366.183 98.0559 366.111C98.1278 366.038 98.1766 365.947 98.1963 365.846C98.2159 365.746 98.2054 365.643 98.1662 365.549C98.1269 365.455 98.0606 365.374 97.9757 365.318C97.8908 365.261 97.791 365.231 97.6889 365.231C97.6206 365.231 97.553 365.245 97.49 365.271C97.427 365.297 97.3699 365.335 97.3218 365.384C97.2737 365.432 97.2357 365.489 97.21 365.553C97.1842 365.616 97.1712 365.683 97.1718 365.751Z" fill="#4890C0"/>
<path d="M94.3682 350.754C94.3698 350.875 94.4072 350.993 94.4756 351.092C94.5441 351.192 94.6405 351.27 94.7528 351.315C94.8652 351.36 94.9884 351.371 95.1069 351.346C95.2255 351.322 95.3342 351.263 95.4192 351.177C95.5043 351.091 95.562 350.981 95.585 350.863C95.6081 350.744 95.5955 350.621 95.5488 350.51C95.5021 350.398 95.4234 350.303 95.3226 350.236C95.2218 350.169 95.1034 350.133 94.9823 350.133C94.9011 350.134 94.8208 350.15 94.7461 350.182C94.6713 350.213 94.6034 350.259 94.5464 350.317C94.4894 350.374 94.4443 350.443 94.4137 350.518C94.3832 350.593 94.3677 350.673 94.3682 350.754Z" fill="#4890C0"/>
<path d="M117.043 404.907C117.043 404.907 67.0515 405.5 63.3148 403.697C59.578 401.895 73.1394 390.39 80.2412 388.249C93.431 384.289 112.523 389.237 115.67 396.568C118.817 403.899 117.043 404.907 117.043 404.907Z" fill="#C1DAE7"/>
<path d="M112.349 400.943C112.349 400.943 114.118 399.955 110.967 392.628C110.79 392.21 110.569 391.811 110.309 391.438C112.927 392.914 114.842 394.664 115.666 396.588C118.817 403.915 117.043 404.907 117.043 404.907C117.043 404.907 67.0515 405.5 63.3148 403.697C62.2887 403.209 62.5674 401.988 63.6501 400.427C77.2114 401.363 112.349 400.943 112.349 400.943Z" fill="#043340"/>
<path d="M151.652 317.046L150.496 392.096L192.206 390.507L173.874 316.929C172.913 313.07 170.901 309.469 168.368 308.215C165.629 306.856 161.674 307.11 158.798 307.933C155.582 308.852 151.652 313.614 151.652 317.046Z" fill="#A2BFDC"/>
<g style="mix-blend-mode:multiply" opacity="0.46">
<path d="M151.652 317.046C151.677 316.161 151.876 315.29 152.237 314.481C155.526 343.314 164.987 387.023 192.206 390.507L150.496 392.096L151.652 317.046Z" fill="#A3B6BF"/>
</g>
<path d="M169.006 350.923H182.338C182.245 350.561 182.156 350.198 182.067 349.835L182.039 349.734H168.901L165.225 307.344C164.821 307.299 164.417 307.271 164.013 307.263L168.978 364.646L150.888 366.558V366.747V367.755L169.115 365.852L171.285 391.305H171.689L172.468 391.273L169.006 350.923Z" fill="#4890C0"/>
<path d="M167.572 363.017C167.572 363.12 167.542 363.22 167.484 363.306C167.427 363.392 167.346 363.458 167.251 363.498C167.155 363.537 167.051 363.547 166.949 363.527C166.848 363.507 166.756 363.458 166.683 363.385C166.61 363.312 166.56 363.219 166.54 363.119C166.52 363.018 166.53 362.913 166.57 362.818C166.609 362.723 166.676 362.642 166.762 362.584C166.847 362.527 166.948 362.497 167.051 362.497C167.189 362.497 167.322 362.552 167.42 362.649C167.517 362.747 167.572 362.879 167.572 363.017V363.017Z" fill="#4890C0"/>
<path d="M170.404 348.008C170.404 348.131 170.368 348.251 170.299 348.353C170.231 348.455 170.134 348.535 170.02 348.582C169.906 348.629 169.781 348.641 169.661 348.617C169.54 348.593 169.429 348.534 169.342 348.447C169.255 348.36 169.196 348.25 169.172 348.129C169.148 348.009 169.16 347.884 169.207 347.77C169.254 347.657 169.334 347.56 169.436 347.492C169.539 347.423 169.659 347.387 169.782 347.387C169.864 347.386 169.945 347.402 170.021 347.433C170.096 347.464 170.165 347.51 170.223 347.568C170.281 347.625 170.327 347.694 170.358 347.77C170.389 347.845 170.405 347.926 170.404 348.008V348.008Z" fill="#4890C0"/>
<path d="M147.519 402.205C147.519 402.205 197.967 402.802 201.74 401.016C205.513 399.229 191.827 387.688 184.66 385.551C171.353 381.587 152.088 386.543 148.909 393.878C145.729 401.213 147.519 402.205 147.519 402.205Z" fill="#C1DAE7"/>
<path d="M152.258 398.241C152.258 398.241 150.472 397.249 153.647 389.914C153.832 389.501 154.057 389.107 154.318 388.737C151.676 390.213 149.741 391.963 148.909 393.89C145.729 401.225 147.519 402.217 147.519 402.217C147.519 402.217 197.967 402.814 201.74 401.028C202.779 400.54 202.5 399.318 201.401 397.753C187.714 398.657 152.258 398.241 152.258 398.241Z" fill="#043340"/>
<path d="M99.0341 257.615C83.0165 257.615 109.537 298.492 131.619 298.492C149.951 298.492 178.419 257.889 162.401 257.889L99.0341 257.615Z" fill="#A2BFDC"/>
<g style="mix-blend-mode:multiply" opacity="0.46">
<path d="M162.397 257.889L155.211 257.857C149.062 269.72 133.8 285.314 122.448 285.314C113.472 285.314 103.761 278.552 96.4729 270.527C102.266 282.507 117.811 298.492 131.619 298.492C149.951 298.492 178.419 257.889 162.397 257.889Z" fill="#A3B6BF"/>
</g>
<path d="M165.682 254.376H95.8145C93.1394 254.376 90.9708 256.541 90.9708 259.211V264.321C90.9708 266.991 93.1394 269.156 95.8145 269.156H165.682C168.357 269.156 170.525 266.991 170.525 264.321V259.211C170.525 256.541 168.357 254.376 165.682 254.376Z" fill="#043340"/>
<path d="M97.8989 244.432H156.709C167.132 233.407 179.195 219.592 181.101 205.76C182.043 198.651 182.871 188.872 180.463 182.952C175.575 170.919 159.481 163.927 153.235 163.193C136.921 161.261 120.466 160.789 104.068 161.781C102.072 161.898 100.278 162.802 98.412 163.564C88.6843 167.56 78.4274 175.815 74.9492 183.989C72.2547 190.312 74.1816 200.865 75.1108 207.914C77.0337 221.737 87.4764 233.407 97.8989 244.432Z" fill="#A2BFDC"/>
<path d="M128.064 175.77C139.679 175.77 149.094 172.524 149.094 168.52C149.094 164.515 139.679 161.269 128.064 161.269C116.449 161.269 107.033 164.515 107.033 168.52C107.033 172.524 116.449 175.77 128.064 175.77Z" fill="#032630"/>
<path d="M128.06 161.269C127.518 161.269 126.985 161.269 126.444 161.289C137.307 161.572 145.867 164.701 145.867 168.52C145.867 172.339 137.319 175.464 126.444 175.75C126.977 175.75 127.51 175.77 128.06 175.77C139.674 175.77 149.09 172.524 149.09 168.512C149.09 164.499 139.678 161.269 128.06 161.269Z" fill="#A3B6BF"/>
<path d="M139.181 244.432C141.758 217.084 146.343 188.457 164.013 166.947C162.486 166.161 160.916 165.46 159.311 164.846C152.173 173.851 147.139 183.98 143.504 194.687C133.198 193.792 122.901 194.638 112.64 195.639C109.586 184.291 105.223 173.439 98.0969 163.685C96.5941 164.318 95.0752 165.052 93.5764 165.866C110.543 188.223 111.691 217.697 116.68 244.424H121.733C118.934 229.951 117.257 214.902 113.848 200.49C123.204 199.594 132.568 198.877 141.948 199.538C137.654 214.003 135.63 229.379 134.208 244.424L139.181 244.432Z" fill="#4890C0"/>
<g style="mix-blend-mode:multiply" opacity="0.46">
<path d="M180.463 182.952C177.72 176.202 171.454 171.04 165.379 167.677C168.041 173.883 167.063 184.098 166.187 190.856C163.508 210.277 143.77 229.524 118.057 229.524H84.9718C88.8136 234.702 93.3583 239.63 97.899 244.444H156.709C167.132 233.419 179.195 219.604 181.101 205.772C182.043 198.651 182.871 188.872 180.463 182.952Z" fill="#A3B6BF"/>
</g>
<path d="M139.133 144.365C138.64 168.302 140.288 170.48 137.496 175.012C131.25 176.039 124.877 176.039 118.631 175.012C117.558 173.277 116.991 171.277 116.995 169.238V144.365H139.133Z" fill="#043340"/>
<path d="M139.132 162.354V163.197C152.767 167.552 144.384 175.294 126.452 175.75C126.985 175.75 127.518 175.77 128.068 175.77C148.941 175.77 157.247 166.225 139.132 162.354Z" fill="#5B8295"/>
<path d="M178.185 181.238C174.226 180.577 169.463 189.303 167.54 200.74C165.617 212.176 167.265 221.979 171.22 222.645C175.175 223.31 179.942 214.579 181.865 203.143C183.788 191.707 182.139 181.9 178.185 181.238Z" fill="#032630"/>
<path d="M181.865 203.143C181.776 203.675 181.679 204.2 181.578 204.72C183.097 193.981 181.424 185.037 177.651 184.404C173.878 183.771 169.37 191.662 167.293 202.329C167.366 201.804 167.451 201.272 167.54 200.74C169.463 189.307 174.226 180.577 178.185 181.238C182.144 181.9 183.808 191.707 181.865 203.143Z" fill="#5B8295"/>
<path d="M78.0719 183.359C82.0268 182.698 86.7937 191.425 88.7166 202.861C90.6395 214.297 88.9913 224.104 85.0324 224.766C81.0734 225.427 76.3106 216.7 74.3877 205.264C72.4648 193.828 74.117 184.021 78.0719 183.359Z" fill="#032630"/>
<path d="M74.3877 205.256C74.4806 205.788 74.5735 206.313 74.6745 206.833C73.1596 196.094 74.832 187.15 78.6052 186.517C82.3783 185.884 86.8826 193.775 88.963 204.442C88.8863 203.917 88.8055 203.385 88.7166 202.853C86.7937 191.42 82.0268 182.69 78.0719 183.351C74.117 184.013 72.4648 193.828 74.3877 205.256Z" fill="#5B8295"/>
<path d="M211.412 193.646C198.113 209.091 177.676 207.155 176.694 207.055C174.914 206.871 173.28 205.989 172.151 204.603C171.022 203.217 170.491 201.44 170.675 199.663C170.859 197.886 171.742 196.255 173.131 195.128C174.519 194.001 176.3 193.471 178.08 193.655C178.888 193.731 196.586 195.171 204.552 179.831C207.416 174.318 204.681 163.108 197.046 149.071C196.192 147.501 195.998 145.656 196.507 143.944C197.015 142.231 198.184 140.789 199.757 139.937C201.33 139.085 203.177 138.891 204.893 139.398C206.609 139.906 208.053 141.073 208.907 142.643C219.144 161.471 221.709 176.069 216.534 186.033C215.128 188.76 213.409 191.315 211.412 193.646V193.646Z" fill="#043340"/>
<path d="M197.034 124.045C197.034 124.045 224.504 155.785 224.997 167.245C225.49 178.706 202.112 183.674 198.698 179.065C195.899 175.278 185.828 128.057 185.828 128.057L197.034 124.045Z" fill="#A2BFDC"/>
<path d="M201.397 150.216L190.708 126.307L189.144 126.868L212.627 179.404C213.157 179.234 213.682 179.057 214.203 178.863L202.084 151.74C206.261 150.382 209.982 147.899 212.837 144.566L213.019 144.349C212.684 143.877 212.341 143.405 212.001 142.933C209.256 146.344 205.569 148.876 201.397 150.216V150.216Z" fill="#4890C0"/>
<path d="M165.367 122.674C165.205 122.938 165.116 123.24 165.111 123.549C165.105 123.858 165.182 124.164 165.334 124.433C165.486 124.703 165.707 124.927 165.975 125.083C166.243 125.239 166.547 125.32 166.857 125.319C168.93 125.319 172.202 125.517 174.533 126.408C178.237 127.811 185.339 132.211 189.35 130.404C193.362 128.598 197.026 125.859 197.167 120.98C197.309 116.101 193.035 110.358 193.77 108.423C194.505 106.487 192.804 96.2284 190.292 96.3252C188.563 96.3978 190.813 107.697 189.233 108.423C187.654 109.149 184.147 96.3252 182.204 95.5953C180.261 94.8654 178.843 96.0873 179.857 98.3293C180.871 100.571 184.192 109.084 183.283 109.491C182.374 109.899 175.801 98.6923 174.517 97.5874C173.232 96.4824 171.071 97.8938 171.689 99.2286C172.307 100.563 178.823 110.987 178.455 111.955C178.088 112.923 168.76 104.164 167.681 103.148C166.603 102.132 164.046 103.386 164.195 105.165C164.344 106.943 176.872 115.601 176.718 117.561C176.565 119.52 176.242 121.19 173.991 120.758C172.206 120.399 167.071 120.17 165.367 122.674Z" fill="#043340"/>
<path d="M45.1238 221.999C65.1852 225.713 79.8938 211.422 80.5967 210.728C81.8685 209.471 82.5879 207.761 82.5966 205.974C82.6053 204.188 81.9026 202.471 80.6432 201.201C79.3838 199.932 77.6707 199.214 75.8809 199.205C74.0911 199.196 72.3711 199.898 71.0993 201.155C70.5055 201.728 57.6309 213.914 41.7911 206.942C36.1031 204.45 31.1948 193.993 28.3307 178.278C28.0092 176.521 27.0015 174.962 25.5291 173.946C24.0567 172.93 22.2403 172.54 20.4794 172.861C18.7186 173.182 17.1575 174.188 16.1397 175.657C15.1219 177.127 14.7306 178.94 15.0521 180.698C18.8979 201.772 26.0644 214.753 36.3536 219.277C39.1613 220.521 42.1045 221.435 45.1238 221.999Z" fill="#043340"/>
<path d="M12.6282 158.769C12.6282 158.769 11.1456 200.708 17.9607 209.926C24.7757 219.144 46.1095 208.41 45.8752 202.667C45.6813 197.998 23.8789 154.886 23.8789 154.886L12.6282 158.769Z" fill="#A2BFDC"/>
<path d="M25.6604 181.896L18.9868 156.575L20.5582 156.035L35.2346 211.66C34.7175 211.862 34.1964 212.063 33.6672 212.224L26.0846 183.505C21.9774 185.062 17.519 185.455 13.2019 184.642L12.9231 184.589C12.8868 184.009 12.8585 183.428 12.8302 182.851C17.1087 183.789 21.5687 183.457 25.6604 181.896V181.896Z" fill="#4890C0"/>
<path d="M36.4425 137.889C36.7348 137.992 36.9941 138.171 37.1935 138.409C37.3928 138.646 37.5249 138.932 37.576 139.237C37.6272 139.543 37.5954 139.856 37.4842 140.145C37.3729 140.434 37.1862 140.688 36.9434 140.881C35.3275 142.191 32.9037 144.381 31.6271 146.546C29.6072 149.954 26.8521 157.838 22.5902 158.93C18.3283 160.023 13.7553 160.193 10.5841 156.462C7.41293 152.732 7.13418 145.599 5.33246 144.55C3.53074 143.502 -1.55932 134.461 0.464582 132.973C1.86233 131.945 7.19882 142.159 8.87531 141.724C10.5518 141.288 5.23955 129.118 6.29796 127.331C7.35637 125.545 9.22677 125.609 9.84889 127.993C10.471 130.376 13.218 139.082 14.1876 138.832C15.1571 138.582 13.2544 125.73 13.5776 124.065C13.9007 122.4 16.4539 122.15 16.8094 123.569C17.1648 124.988 18.6353 137.191 19.5281 137.715C20.4209 138.239 22.1822 125.585 22.3923 124.113C22.6023 122.642 25.3655 122.033 26.3674 123.492C27.3692 124.952 23.0386 139.554 24.3798 140.998C25.721 142.441 27.0662 143.558 28.5286 141.78C29.688 140.397 33.5298 136.989 36.4425 137.889Z" fill="#043340"/>
<path d="M128.609 129.36C192.338 129.36 244 106.2 244 77.6303C244 49.0609 192.338 25.9009 128.609 25.9009C64.8803 25.9009 13.218 49.0609 13.218 77.6303C13.218 106.2 64.8803 129.36 128.609 129.36Z" fill="#043340"/>
<path d="M26.6905 101.906C28.8409 103.703 31.0978 105.369 33.449 106.894C27.4702 89.7279 24.8807 70.6701 25.5069 54.3746C23.6969 55.9741 22.009 57.7062 20.4572 59.5564C20.5713 73.8922 22.6689 88.1435 26.6905 101.906V101.906Z" fill="#A2BFDC"/>
<path d="M236.728 59.5162C235.169 57.6622 233.473 55.9274 231.655 54.3263C232.624 70.775 229.32 90.1635 222.731 107.556C225.18 106.022 227.534 104.341 229.78 102.523C234.393 88.1795 236.797 73.0897 236.728 59.5162Z" fill="#A2BFDC"/>
<path d="M159.974 150.902C138.565 147.935 116.882 147.491 95.3701 149.579C45.8106 154.386 28.1731 80.2878 35.2386 42.9949C38.8421 23.9774 60.0749 10.3515 77.9992 6.11729C110.791 -1.57074 144.87 -2.01802 177.853 4.80671C195.374 8.53278 212.708 20.3965 219.531 37.4703C233.784 73.0816 208.382 157.608 159.974 150.902Z" fill="#A2BFDC"/>
<g style="mix-blend-mode:multiply" opacity="0.46">
<path d="M219.531 37.4501C216.158 29.0221 210.216 21.8603 202.968 16.3236C205.423 19.5647 207.436 23.116 208.955 26.8848C223.195 62.5042 197.794 147.038 149.385 140.332C127.977 137.364 106.294 136.919 84.7819 139.006C73.0222 140.147 63.0643 136.844 54.803 130.65C64.6317 143.3 78.0517 151.252 95.366 149.575C116.88 147.488 138.564 147.933 159.974 150.902C208.382 157.608 233.784 73.0816 219.531 37.4501Z" fill="#A3B6BF"/>
</g>
<path d="M175.955 116.137C167.698 119.339 158.859 121.303 150.714 122.416C124.791 125.96 93.6613 124.105 70.9418 110.052C60.7374 103.741 52.8115 94.325 50.8926 82.2274L50.4321 79.3078C46.764 56.2014 63.6743 34.9983 87.0402 33.1837C115.218 30.998 143.523 30.998 171.701 33.1837C195.063 34.9983 211.973 56.2014 208.309 79.3078L207.873 82.058C205.089 99.6036 191.564 110.088 175.955 116.137Z" fill="#043340"/>
<path d="M151.232 99.3133C151.232 103.777 141.94 111.54 130.475 111.54C119.011 111.54 109.723 103.777 109.723 99.3133C109.723 94.8493 119.015 95.3816 130.475 95.3816C141.936 95.3816 151.232 94.8533 151.232 99.3133Z" fill="#2FC670"/>
<path d="M100.589 71.1097C100.59 72.4283 100.199 73.7174 99.466 74.8142C98.7327 75.9109 97.6901 76.7659 96.47 77.271C95.2499 77.7761 93.9071 77.9087 92.6115 77.652C91.3159 77.3952 90.1256 76.7607 89.1913 75.8286C88.2571 74.8966 87.6207 73.7088 87.3627 72.4157C87.1047 71.1225 87.2367 69.7821 87.742 68.5638C88.2473 67.3456 89.1032 66.3043 90.2014 65.5717C91.2996 64.839 92.5909 64.448 93.9118 64.448C95.6821 64.448 97.38 65.1497 98.6322 66.3989C99.8843 67.6481 100.588 69.3426 100.589 71.1097Z" fill="#2FC670"/>
<path d="M169.907 68.9766C169.907 70.2941 169.516 71.5821 168.783 72.6777C168.049 73.7732 167.007 74.627 165.787 75.1312C164.568 75.6354 163.226 75.7674 161.932 75.5103C160.637 75.2533 159.448 74.6188 158.515 73.6871C157.581 72.7555 156.946 71.5685 156.688 70.2762C156.431 68.984 156.563 67.6445 157.068 66.4272C157.573 65.21 158.428 64.1695 159.526 63.4375C160.623 62.7055 161.914 62.3148 163.234 62.3148C164.11 62.3143 164.978 62.4862 165.788 62.8208C166.598 63.1554 167.334 63.6461 167.954 64.2648C168.574 64.8835 169.065 65.6181 169.4 66.4266C169.736 67.2351 169.908 68.1016 169.907 68.9766V68.9766Z" fill="#2FC670"/>
</g>
<defs>
<clipPath id="clip0_22:10">
<rect width="244" height="405" fill="white"/>
</clipPath>
</defs>
</svg>
