<svg width="60" height="60" viewBox="0 0 60 60" fill="none" xmlns="http://www.w3.org/2000/svg">
<path d="M30 0C13.4313 0 0 13.4313 0 30C0 46.5687 13.4313 60 30 60C46.5687 60 60 46.5687 60 30C60 13.4313 46.5687 0 30 0Z" fill="#40B3E0"/>
<path d="M44.5976 17.257L39.2391 44.2732C39.2391 44.2732 38.4898 46.1468 36.429 45.2475L24.0638 35.7675L19.5676 33.5944L11.9987 31.0462C11.9987 31.0462 10.8371 30.6342 10.7246 29.7349C10.6121 28.8356 12.0362 28.3486 12.0362 28.3486L42.1243 16.5455C42.1243 16.5455 44.5974 15.4589 44.5974 17.2575" fill="white"/>
<path d="M23.1136 43.9695C23.1136 43.9695 22.7527 43.9357 22.3027 42.5117C21.8534 41.0878 19.5675 33.5939 19.5675 33.5939L37.7405 22.0533C37.7405 22.0533 38.7898 21.4163 38.7523 22.0533C38.7523 22.0533 38.9395 22.1658 38.3773 22.6903C37.8155 23.2151 24.1015 35.5425 24.1015 35.5425" fill="#D2E5F1"/>
<path d="M28.8049 39.402L23.9142 43.8612C23.9142 43.8612 23.5317 44.1513 23.1135 43.9695L24.0501 35.6866" fill="#B5CFE4"/>
</svg>
