<svg width="66" height="66" viewBox="0 0 66 66" fill="none" xmlns="http://www.w3.org/2000/svg">
<g clip-path="url(#clip0_20:104)">
<path d="M17.4444 56.5263L18.5233 57.0597C23.0196 59.7259 28.0549 60.9702 33.0905 60.9702C48.9163 60.9702 61.8647 48.1719 61.8647 32.5293C61.8647 25.0637 58.8073 17.7757 53.4123 12.4429C48.0171 7.11017 40.8233 4.08844 33.0905 4.08844C17.2647 4.08844 4.31604 16.8868 4.49599 32.7072C4.49599 38.0397 6.11454 43.1948 8.81203 47.6385L9.53133 48.7052L6.65414 59.1928L17.4444 56.5263Z" fill="#00E676"/>
<path d="M56.4694 9.59879C50.3549 3.37747 41.9025 0 33.2702 0C14.9268 0 0.179953 14.7537 0.359648 32.707C0.359648 38.3952 1.9782 43.9058 4.67595 48.8828L0 65.7696L17.4444 61.3257C22.3 63.9922 27.695 65.2365 33.0905 65.2365C51.2542 65.2365 66.001 50.4826 66.001 32.5296C66.001 23.8194 62.584 15.6425 56.4697 9.59879H56.4694ZM33.2702 59.7262C28.4145 59.7262 23.5589 58.4821 19.4226 55.9935L18.3436 55.4601L7.91304 58.1264L10.6105 47.9945L9.89123 46.9278C1.9782 34.3073 5.75489 17.5978 18.7033 9.77641C31.6516 1.95528 48.3767 5.68823 56.2897 18.4866C64.2025 31.285 60.4258 47.8164 47.4777 55.6377C43.3411 58.304 38.3058 59.7259 33.2702 59.7259V59.7262ZM49.096 39.9955L47.1178 39.1067C47.1178 39.1067 44.2406 37.8623 42.4421 36.9735C42.2622 36.9735 42.0825 36.7956 41.9025 36.7956C41.3629 36.7956 41.0033 36.9735 40.6436 37.1514C40.6436 37.1514 40.4639 37.329 37.9461 40.1731C37.7662 40.5286 37.4065 40.7065 37.0469 40.7065H36.8669C36.6872 40.7065 36.3276 40.5286 36.1476 40.351L35.2484 39.9955C33.2702 39.1067 31.4719 38.04 30.0331 36.618C29.6734 36.2625 29.1338 35.9071 28.7742 35.5516C27.5153 34.3073 26.2564 32.8851 25.3574 31.2853L25.1775 30.9298C24.9978 30.7519 24.9978 30.5743 24.8178 30.2188C24.8178 29.8633 24.8178 29.5079 24.9978 29.33C24.9978 29.33 25.7171 28.4412 26.2564 27.9081C26.6163 27.5523 26.796 27.0192 27.1556 26.6637C27.5153 26.1304 27.6952 25.4194 27.5153 24.8861C27.3356 23.9972 25.1775 19.1978 24.6381 18.1314C24.2782 17.598 23.9188 17.4204 23.3792 17.2426H21.401C21.0411 17.2426 20.6817 17.4204 20.3218 17.4204L20.1419 17.598C19.7822 17.7759 19.4226 18.1314 19.0629 18.309C18.7033 18.6647 18.5233 19.02 18.1637 19.3757C16.9048 20.9755 16.1855 22.9308 16.1855 24.8861C16.1855 26.308 16.5451 27.7302 17.0847 28.9745L17.2647 29.5079C18.8832 32.8851 21.0411 35.9071 23.9188 38.5733L24.6381 39.2843C25.1775 39.8176 25.7171 40.1731 26.0767 40.7062C29.8534 43.9061 34.1694 46.2168 39.0251 47.4611C39.5647 47.6387 40.284 47.6387 40.8236 47.8166H42.6218C43.5211 47.8166 44.6 47.4611 45.3196 47.1057C45.8589 46.7502 46.2186 46.7502 46.5782 46.3947L46.9381 46.0389C47.2978 45.6835 47.6574 45.5059 48.0171 45.1504C48.3767 44.7949 48.7364 44.4394 48.9163 44.0837C49.276 43.3727 49.4557 42.4839 49.6356 41.5953V40.351C49.6356 40.351 49.4557 40.1731 49.096 39.9955V39.9955Z" fill="white"/>
</g>
<defs>
<clipPath id="clip0_20:104">
<rect width="66" height="66" fill="white"/>
</clipPath>
</defs>
</svg>
